<svg xmlns="http://www.w3.org/2000/svg" xlink="http://www.w3.org/1999/xlink" width="0" height="0" style="display:none;"><symbol viewBox="0 0 24 24" id="bold"><path fill="none" d="M0 0h24v24H0z"/><path d="M8 11h4.5a2.5 2.5 0 1 0 0-5H8v5zm10 4.5a4.5 4.5 0 0 1-4.5 4.5H6V4h6.5a4.5 4.5 0 0 1 3.256 7.606A4.498 4.498 0 0 1 18 15.5zM8 13v5h5.5a2.5 2.5 0 1 0 0-5H8z"/></symbol><symbol viewBox="0 0 24 24" id="italic"><path fill="none" d="M0 0h24v24H0z"/><path d="M15 20H7v-2h2.927l2.116-12H9V4h8v2h-2.927l-2.116 12H15z"/></symbol><symbol viewBox="0 0 24 24" id="underline"><path fill="none" d="M0 0h24v24H0z"/><path d="M8 3v9a4 4 0 1 0 8 0V3h2v9a6 6 0 1 1-12 0V3h2zM4 20h16v2H4v-2z"/></symbol><symbol viewBox="0 0 24 24" id="strikethrough"><path fill="none" d="M0 0h24v24H0z"/><path d="M17.154 14c.23.516.346 1.09.346 1.72 0 1.342-.524 2.392-1.571 3.147C14.88 19.622 13.433 20 11.586 20c-1.64 0-3.263-.381-4.87-1.144V16.6c1.52.877 3.075 1.316 4.666 1.316 2.551 0 3.83-.732 3.839-2.197a2.21 2.21 0 0 0-.648-1.603l-.12-.117H3v-2h18v2h-3.846zm-4.078-3H7.629a4.086 4.086 0 0 1-.481-.522C6.716 9.92 6.5 9.246 6.5 8.452c0-1.236.466-2.287 1.397-3.153C8.83 4.433 10.271 4 12.222 4c1.471 0 2.879.328 4.222.984v2.152c-1.2-.687-2.515-1.03-3.946-1.03-2.48 0-3.719.782-3.719 2.346 0 .42.218.786.654 1.099.436.313.974.562 1.613.75.62.18 1.297.414 2.03.699z"/></symbol><symbol viewBox="0 0 24 24" id="align-left"><path fill="none" d="M0 0h24v24H0z"/><path d="M3 4h18v2H3V4zm0 15h14v2H3v-2zm0-5h18v2H3v-2zm0-5h14v2H3V9z"/></symbol><symbol viewBox="0 0 24 24" id="align-center"><path fill="none" d="M0 0h24v24H0z"/><path d="M3 4h18v2H3V4zm2 15h14v2H5v-2zm-2-5h18v2H3v-2zm2-5h14v2H5V9z"/></symbol><symbol viewBox="0 0 24 24" id="align-right"><path fill="none" d="M0 0h24v24H0z"/><path d="M3 4h18v2H3V4zm4 15h14v2H7v-2zm-4-5h18v2H3v-2zm4-5h14v2H7V9z"/></symbol><symbol viewBox="0 0 24 24" id="align-justify"><path fill="none" d="M0 0h24v24H0z"/><path d="M3 4h18v2H3V4zm0 15h18v2H3v-2zm0-5h18v2H3v-2zm0-5h18v2H3V9z"/></symbol><symbol viewBox="0 0 24 24" id="list-unordered"><path fill="none" d="M0 0h24v24H0z"/><path d="M8 4h13v2H8V4zM4.5 6.5a1.5 1.5 0 1 1 0-3 1.5 1.5 0 0 1 0 3zm0 7a1.5 1.5 0 1 1 0-3 1.5 1.5 0 0 1 0 3zm0 6.9a1.5 1.5 0 1 1 0-3 1.5 1.5 0 0 1 0 3zM8 11h13v2H8v-2zm0 7h13v2H8v-2z"/></symbol><symbol viewBox="0 0 24 24" id="list-ordered"><path fill="none" d="M0 0h24v24H0z"/><path d="M8 4h13v2H8V4zM5 3v3h1v1H3V6h1V4H3V3h2zM3 14v-2.5h2V11H3v-1h3v2.5H4v.5h2v1H3zm2 5.5H3v-1h2V18H3v-1h3v4H3v-1h2v-.5zM8 11h13v2H8v-2zm0 7h13v2H8v-2z"/></symbol><symbol viewBox="0 0 24 24" id="subscript-2"><path fill="none" d="M0 0h24v24H0z"/><path d="M11 6v13H9V6H3V4h14v2h-6zm8.55 10.58a.8.8 0 1 0-1.32-.36l-1.154.33A2.001 2.001 0 0 1 19 14a2 2 0 0 1 1.373 3.454L18.744 19H21v1h-4v-1l2.55-2.42z"/></symbol><symbol viewBox="0 0 24 24" id="superscript-2"><path fill="none" d="M0 0h24v24H0z"/><path d="M11 7v13H9V7H3V5h12v2h-4zm8.55-.42a.8.8 0 1 0-1.32-.36l-1.154.33A2.001 2.001 0 0 1 19 4a2 2 0 0 1 1.373 3.454L18.744 9H21v1h-4V9l2.55-2.42z"/></symbol><symbol viewBox="0 0 24 24" id="arrow-go-forward-line"><path fill="none" d="M0 0h24v24H0z"/><path d="M18.172 7H11a6 6 0 1 0 0 12h9v2h-9a8 8 0 1 1 0-16h7.172l-2.536-2.536L17.05 1.05 22 6l-4.95 4.95-1.414-1.414L18.172 7z"/></symbol><symbol viewBox="0 0 24 24" id="arrow-go-back-line"><path fill="none" d="M0 0h24v24H0z"/><path d="M5.828 7l2.536 2.536L6.95 10.95 2 6l4.95-4.95 1.414 1.414L5.828 5H13a8 8 0 1 1 0 16H4v-2h9a6 6 0 1 0 0-12H5.828z"/></symbol><symbol viewBox="0 0 24 24" id="format-clear"><path fill="none" d="M0 0h24v24H0z"/><path d="M12.651 14.065L11.605 20H9.574l1.35-7.661-7.41-7.41L4.93 3.515 20.485 19.07l-1.414 1.414-6.42-6.42zm-.878-6.535l.27-1.53h-1.8l-2-2H20v2h-5.927L13.5 9.257 11.773 7.53z"/></symbol></svg>